<?xml version="1.0" standalone="no"?>
<!DOCTYPE svg PUBLIC "-//W3C//DTD SVG 20010904//EN"
 "http://www.w3.org/TR/2001/REC-SVG-20010904/DTD/svg10.dtd">
<svg version="1.0" xmlns="http://www.w3.org/2000/svg"
 width="892.000000pt" height="280.000000pt" viewBox="0 0 892.000000 280.000000"
 preserveAspectRatio="xMidYMid meet">
<metadata>
Created by potrace 1.16, written by Peter Selinger 2001-2019
</metadata>
<g transform="translate(0.000000,280.000000) scale(0.100000,-0.100000)"
fill="#0d32cc" stroke="none">
<path d="M2843 2712 c-18 -11 -56 -121 -50 -144 4 -14 -4 -30 -26 -52 -17 -17
-51 -56 -76 -86 -24 -30 -70 -82 -102 -116 l-58 -61 13 -50 c15 -55 33 -93 44
-93 5 0 25 17 45 38 26 27 37 47 37 69 0 36 17 53 62 62 35 7 74 51 136 155
42 69 99 200 107 249 l7 37 -63 0 c-35 0 -69 -4 -76 -8z"/>
<path d="M3027 2648 c-27 -92 -87 -210 -161 -320 -36 -54 -66 -106 -66 -116 0
-23 -32 -58 -62 -67 -35 -11 -108 -74 -108 -93 0 -15 39 -53 78 -76 28 -17
237 197 310 317 31 51 32 55 17 83 -8 16 -15 41 -15 56 0 35 42 84 84 98 29 9
34 17 44 61 16 68 17 66 -25 88 -76 37 -76 37 -96 -31z"/>
<path d="M2709 2655 c-84 -55 -155 -163 -174 -268 -10 -52 5 -47 62 21 70 81
83 102 83 137 0 35 8 48 36 63 20 11 51 73 36 71 -4 0 -23 -11 -43 -24z"/>
<path d="M3207 2603 c-3 -4 -8 -27 -12 -51 -5 -32 -3 -48 8 -60 53 -62 1 -172
-81 -172 -13 0 -36 -26 -72 -82 -30 -45 -102 -130 -162 -191 -59 -61 -108
-111 -108 -112 0 -5 82 -24 131 -30 l55 -7 62 66 c50 54 62 73 62 100 0 35 20
59 58 71 15 4 34 29 56 73 43 85 96 235 96 271 0 40 -80 146 -93 124z"/>
<path d="M3311 2310 c-13 -36 -40 -96 -60 -135 -19 -38 -34 -78 -33 -88 6 -35
-19 -78 -49 -84 -26 -5 -93 -63 -73 -63 6 0 33 15 61 33 103 65 174 183 181
298 6 102 -1 112 -27 39z"/>
<path d="M2329 2092 c-86 -88 -94 -122 -84 -328 4 -79 4 -148 0 -154 -4 -7
-32 13 -73 51 -42 39 -93 75 -141 98 -72 34 -82 36 -176 36 -89 0 -106 -3
-155 -27 -30 -15 -72 -43 -93 -63 -36 -33 -42 -35 -106 -35 -87 0 -160 -34
-199 -93 -23 -35 -28 -53 -30 -127 -8 -199 74 -343 241 -425 81 -39 71 -45
-25 -15 -86 26 -151 71 -198 138 -49 68 -69 131 -77 241 l-6 84 -59 -7 c-85
-9 -202 -51 -285 -102 -141 -87 -248 -240 -308 -439 -23 -77 -34 -97 -74 -136
-66 -66 -152 -93 -273 -87 -100 6 -105 -4 -18 -41 72 -31 155 -39 276 -28 88
9 107 8 115 -4 5 -8 9 -54 9 -104 0 -90 -35 -257 -74 -350 -28 -66 -29 -66 97
-63 l112 3 20 37 c26 49 35 48 35 -2 l0 -40 125 0 125 0 0 73 c0 99 22 170 70
220 36 40 41 41 106 45 83 3 110 -9 142 -63 21 -36 23 -48 17 -130 -3 -50 -8
-102 -11 -118 l-6 -27 76 0 c76 0 76 0 98 35 26 39 38 44 38 16 0 -47 7 -51
104 -51 l91 0 0 188 c0 222 17 302 93 444 91 168 201 276 444 434 163 106 199
140 233 215 23 51 28 77 29 149 l1 87 -64 129 c-72 144 -79 181 -42 230 19 27
21 35 11 54 -6 12 -18 44 -26 71 -8 27 -20 49 -27 49 -6 0 -41 -31 -78 -68z"/>
<path d="M4360 1282 c-106 -35 -187 -105 -237 -202 -26 -50 -28 -64 -28 -165
0 -100 3 -115 27 -166 61 -123 180 -204 318 -215 196 -17 360 78 425 245 24
61 27 80 23 153 -8 151 -85 265 -221 329 -84 39 -225 48 -307 21z m215 -181
c49 -22 99 -77 115 -126 27 -82 -11 -184 -86 -234 -41 -27 -56 -31 -114 -31
-56 0 -73 5 -111 29 -51 32 -82 75 -98 137 -14 51 7 128 46 175 55 65 166 88
248 50z"/>
<path d="M6442 1289 c-118 -20 -240 -117 -283 -226 -18 -46 -23 -78 -23 -153
0 -85 3 -101 29 -155 77 -160 244 -245 428 -218 147 21 252 96 308 218 26 57
29 76 29 161 0 86 -3 103 -30 158 -81 170 -250 249 -458 215z m188 -194 c89
-45 132 -153 101 -248 -47 -142 -239 -187 -345 -81 -170 170 29 438 244 329z"/>
<path d="M8507 1290 c-107 -27 -207 -113 -257 -220 -30 -67 -32 -76 -28 -163
3 -75 9 -103 32 -154 35 -76 113 -153 193 -191 51 -24 70 -27 153 -26 53 1
113 7 135 15 38 13 40 16 40 56 0 23 -2 69 -5 102 l-5 61 -36 -24 c-81 -56
-171 -53 -243 6 -104 86 -101 246 6 331 65 52 181 50 243 -5 19 -16 35 -26 36
-22 1 11 1 196 0 205 -3 23 -200 45 -264 29z"/>
<path d="M3208 1212 c-33 -82 -248 -652 -248 -658 0 -2 40 -4 90 -4 100 0 104
3 130 83 l12 37 142 0 142 0 21 -57 20 -58 97 -3 c53 -1 96 -1 96 2 0 2 -23
64 -51 138 -28 73 -87 230 -131 348 -44 118 -87 221 -96 228 -10 7 -49 12
-106 12 l-91 0 -27 -68z m176 -270 c20 -57 36 -108 36 -113 0 -5 -38 -9 -85
-9 -47 0 -85 4 -85 8 0 9 50 156 69 206 7 17 15 26 21 20 4 -5 24 -56 44 -112z"/>
<path d="M3790 915 l0 -365 95 0 95 0 0 365 0 365 -95 0 -95 0 0 -365z"/>
<path d="M4930 1205 c0 -53 4 -75 13 -76 6 -1 39 -2 72 -2 l60 -2 6 -275 c4
-151 7 -281 8 -287 1 -9 26 -13 91 -13 l90 0 2 288 3 287 60 1 c33 1 66 2 73
3 8 1 12 23 12 76 l0 75 -245 0 -245 0 0 -75z"/>
<path d="M5500 917 l0 -367 90 0 90 0 1 68 c1 37 4 98 8 137 l6 70 74 -115
c41 -63 80 -125 88 -137 13 -22 20 -23 123 -23 61 0 110 3 110 6 0 3 -47 67
-105 143 -58 75 -105 140 -105 144 0 3 20 15 43 25 54 24 85 65 99 134 22 107
-18 205 -101 248 -34 17 -67 21 -231 27 l-190 6 0 -366z m318 190 c38 -39 36
-91 -6 -128 -20 -18 -44 -29 -61 -29 -16 0 -36 -3 -45 -6 -14 -5 -16 7 -16 96
l0 103 51 -5 c37 -4 58 -12 77 -31z"/>
<path d="M7050 915 l0 -365 90 0 90 0 0 220 c0 121 4 220 8 220 5 0 38 -37 73
-82 36 -46 114 -145 173 -220 l108 -138 89 0 89 0 1 335 c1 184 1 344 1 355 0
11 0 25 -1 30 -1 6 -37 10 -86 10 l-85 0 -1 -197 c-1 -109 -4 -209 -8 -222 -6
-23 -7 -23 -41 16 -19 22 -96 119 -170 215 -74 97 -144 179 -155 182 -11 3
-55 6 -97 6 l-78 0 0 -365z"/>
<path d="M7922 918 l3 -363 88 -3 87 -3 0 366 0 365 -90 0 -90 0 2 -362z"/>
</g>
</svg>
